<svg width="24" height="24" viewBox="0 0 24 24" fill="none" xmlns="http://www.w3.org/2000/svg">
<path d="M12 8.75C11.138 8.75 10.3114 9.09241 9.7019 9.7019C9.09241 10.3114 8.75 11.138 8.75 12C8.75 12.862 9.09241 13.6886 9.7019 14.2981C10.3114 14.9076 11.138 15.25 12 15.25C12.862 15.25 13.6886 14.9076 14.2981 14.2981C14.9076 13.6886 15.25 12.862 15.25 12C15.25 11.138 14.9076 10.3114 14.2981 9.7019C13.6886 9.09241 12.862 8.75 12 8.75Z" fill="black"/>
<path fill-rule="evenodd" clip-rule="evenodd" d="M6.77007 3.082C10.2461 2.6967 13.754 2.6967 17.2301 3.082C19.1291 3.294 20.6601 4.789 20.8831 6.695C21.2953 10.2197 21.2953 13.7803 20.8831 17.305C20.6601 19.211 19.1291 20.706 17.2311 20.919C13.7547 21.3044 10.2464 21.3044 6.77007 20.919C4.87107 20.706 3.34007 19.211 3.11707 17.306C2.70479 13.781 2.70479 10.22 3.11707 6.695C3.34007 4.789 4.87107 3.294 6.77007 3.082ZM17.0001 6C16.7348 6 16.4805 6.10536 16.293 6.2929C16.1054 6.48043 16.0001 6.73479 16.0001 7C16.0001 7.26522 16.1054 7.51957 16.293 7.70711C16.4805 7.89465 16.7348 8 17.0001 8C17.2653 8 17.5196 7.89465 17.7072 7.70711C17.8947 7.51957 18.0001 7.26522 18.0001 7C18.0001 6.73479 17.8947 6.48043 17.7072 6.2929C17.5196 6.10536 17.2653 6 17.0001 6ZM7.25007 12C7.25007 10.7402 7.75051 9.53204 8.64131 8.64125C9.53211 7.75045 10.7403 7.25 12.0001 7.25C13.2598 7.25 14.468 7.75045 15.3588 8.64125C16.2496 9.53204 16.7501 10.7402 16.7501 12C16.7501 13.2598 16.2496 14.468 15.3588 15.3588C14.468 16.2496 13.2598 16.75 12.0001 16.75C10.7403 16.75 9.53211 16.2496 8.64131 15.3588C7.75051 14.468 7.25007 13.2598 7.25007 12Z" fill="black"/>
</svg>
