<svg width="203" height="51" viewBox="0 0 203 51" fill="none" xmlns="http://www.w3.org/2000/svg">
<path d="M23.375 30.0469C23.375 29.6406 23.3125 29.276 23.1875 28.9531C23.0729 28.6198 22.8542 28.3177 22.5312 28.0469C22.2083 27.7656 21.7552 27.4896 21.1719 27.2188C20.5885 26.9479 19.8333 26.6667 18.9062 26.375C17.875 26.0417 16.8958 25.6667 15.9688 25.25C15.0521 24.8333 14.2396 24.349 13.5312 23.7969C12.8333 23.2344 12.2812 22.5833 11.875 21.8438C11.4792 21.1042 11.2812 20.2448 11.2812 19.2656C11.2812 18.3177 11.4896 17.4583 11.9062 16.6875C12.3229 15.9062 12.9062 15.2396 13.6562 14.6875C14.4062 14.125 15.2917 13.6927 16.3125 13.3906C17.3438 13.0885 18.474 12.9375 19.7031 12.9375C21.3802 12.9375 22.8438 13.2396 24.0938 13.8438C25.3438 14.4479 26.3125 15.276 27 16.3281C27.6979 17.3802 28.0469 18.5833 28.0469 19.9375H23.3906C23.3906 19.2708 23.25 18.6875 22.9688 18.1875C22.6979 17.6771 22.2812 17.276 21.7188 16.9844C21.1667 16.6927 20.4688 16.5469 19.625 16.5469C18.8125 16.5469 18.1354 16.6719 17.5938 16.9219C17.0521 17.1615 16.6458 17.4896 16.375 17.9062C16.1042 18.3125 15.9688 18.7708 15.9688 19.2812C15.9688 19.6667 16.0625 20.0156 16.25 20.3281C16.4479 20.6406 16.7396 20.9323 17.125 21.2031C17.5104 21.474 17.9844 21.7292 18.5469 21.9688C19.1094 22.2083 19.7604 22.4427 20.5 22.6719C21.7396 23.0469 22.8281 23.4688 23.7656 23.9375C24.7135 24.4062 25.5052 24.9323 26.1406 25.5156C26.776 26.099 27.2552 26.7604 27.5781 27.5C27.901 28.2396 28.0625 29.0781 28.0625 30.0156C28.0625 31.0052 27.8698 31.8906 27.4844 32.6719C27.099 33.4531 26.5417 34.1146 25.8125 34.6562C25.0833 35.1979 24.2135 35.6094 23.2031 35.8906C22.1927 36.1719 21.0625 36.3125 19.8125 36.3125C18.6875 36.3125 17.5781 36.1667 16.4844 35.875C15.3906 35.5729 14.3958 35.1198 13.5 34.5156C12.6146 33.9115 11.9062 33.1406 11.375 32.2031C10.8438 31.2656 10.5781 30.1562 10.5781 28.875H15.2812C15.2812 29.5833 15.3906 30.1823 15.6094 30.6719C15.8281 31.1615 16.1354 31.5573 16.5312 31.8594C16.9375 32.1615 17.4167 32.3802 17.9688 32.5156C18.5312 32.651 19.1458 32.7188 19.8125 32.7188C20.625 32.7188 21.2917 32.6042 21.8125 32.375C22.3438 32.1458 22.7344 31.8281 22.9844 31.4219C23.2448 31.0156 23.375 30.5573 23.375 30.0469ZM39.25 19.0938V22.2812H29.4062V19.0938H39.25ZM31.8438 14.9219H36.3438V30.9062C36.3438 31.3958 36.4062 31.7708 36.5312 32.0312C36.6667 32.2917 36.8646 32.474 37.125 32.5781C37.3854 32.6719 37.7135 32.7188 38.1094 32.7188C38.3906 32.7188 38.6406 32.7083 38.8594 32.6875C39.0885 32.6562 39.2812 32.625 39.4375 32.5938L39.4531 35.9062C39.0677 36.0312 38.651 36.1302 38.2031 36.2031C37.7552 36.276 37.2604 36.3125 36.7188 36.3125C35.7292 36.3125 34.8646 36.151 34.125 35.8281C33.3958 35.4948 32.8333 34.9635 32.4375 34.2344C32.0417 33.5052 31.8438 32.5469 31.8438 31.3594V14.9219ZM50.9375 32.1875V24.6562C50.9375 24.1146 50.849 23.651 50.6719 23.2656C50.4948 22.8698 50.2188 22.5625 49.8438 22.3438C49.4792 22.125 49.0052 22.0156 48.4219 22.0156C47.9219 22.0156 47.4896 22.1042 47.125 22.2812C46.7604 22.4479 46.4792 22.6927 46.2812 23.0156C46.0833 23.3281 45.9844 23.6979 45.9844 24.125H41.4844C41.4844 23.4062 41.651 22.724 41.9844 22.0781C42.3177 21.4323 42.8021 20.8646 43.4375 20.375C44.0729 19.875 44.8281 19.4844 45.7031 19.2031C46.5885 18.9219 47.5781 18.7812 48.6719 18.7812C49.9844 18.7812 51.151 19 52.1719 19.4375C53.1927 19.875 53.9948 20.5312 54.5781 21.4062C55.1719 22.2812 55.4688 23.375 55.4688 24.6875V31.9219C55.4688 32.849 55.526 33.6094 55.6406 34.2031C55.7552 34.7865 55.9219 35.2969 56.1406 35.7344V36H51.5938C51.375 35.5417 51.2083 34.9688 51.0938 34.2812C50.9896 33.5833 50.9375 32.8854 50.9375 32.1875ZM51.5312 25.7031L51.5625 28.25H49.0469C48.4531 28.25 47.9375 28.3177 47.5 28.4531C47.0625 28.5885 46.7031 28.7812 46.4219 29.0312C46.1406 29.2708 45.9323 29.5521 45.7969 29.875C45.6719 30.1979 45.6094 30.5521 45.6094 30.9375C45.6094 31.3229 45.6979 31.6719 45.875 31.9844C46.0521 32.2865 46.3073 32.526 46.6406 32.7031C46.974 32.8698 47.3646 32.9531 47.8125 32.9531C48.4896 32.9531 49.0781 32.8177 49.5781 32.5469C50.0781 32.276 50.4635 31.9427 50.7344 31.5469C51.0156 31.151 51.1615 30.776 51.1719 30.4219L52.3594 32.3281C52.1927 32.7552 51.9635 33.1979 51.6719 33.6562C51.3906 34.1146 51.0312 34.5469 50.5938 34.9531C50.1562 35.349 49.6302 35.6771 49.0156 35.9375C48.401 36.1875 47.6719 36.3125 46.8281 36.3125C45.7552 36.3125 44.7812 36.099 43.9062 35.6719C43.0417 35.2344 42.3542 34.6354 41.8438 33.875C41.3438 33.1042 41.0938 32.2292 41.0938 31.25C41.0938 30.3646 41.2604 29.5781 41.5938 28.8906C41.9271 28.2031 42.4167 27.625 43.0625 27.1562C43.7188 26.6771 44.5365 26.3177 45.5156 26.0781C46.4948 25.8281 47.6302 25.7031 48.9219 25.7031H51.5312ZM63.4375 22.5938V36H58.9219V19.0938H63.1562L63.4375 22.5938ZM62.8125 26.9531H61.5625C61.5625 25.776 61.7031 24.6927 61.9844 23.7031C62.276 22.7031 62.6979 21.8385 63.25 21.1094C63.8125 20.3698 64.5052 19.7969 65.3281 19.3906C66.151 18.9844 67.1042 18.7812 68.1875 18.7812C68.9375 18.7812 69.625 18.8958 70.25 19.125C70.875 19.3438 71.4115 19.6927 71.8594 20.1719C72.3177 20.6406 72.6719 21.2552 72.9219 22.0156C73.1719 22.7656 73.2969 23.6667 73.2969 24.7188V36H68.7969V25.2188C68.7969 24.4479 68.6927 23.8542 68.4844 23.4375C68.276 23.0208 67.9792 22.7292 67.5938 22.5625C67.2188 22.3958 66.7656 22.3125 66.2344 22.3125C65.651 22.3125 65.1406 22.4323 64.7031 22.6719C64.276 22.9115 63.9219 23.2448 63.6406 23.6719C63.3594 24.0885 63.151 24.5781 63.0156 25.1406C62.8802 25.7031 62.8125 26.3073 62.8125 26.9531ZM72.875 26.4375L71.2656 26.6406C71.2656 25.5365 71.401 24.5104 71.6719 23.5625C71.9531 22.6146 72.3646 21.7812 72.9062 21.0625C73.4583 20.3438 74.1406 19.7865 74.9531 19.3906C75.7656 18.9844 76.7031 18.7812 77.7656 18.7812C78.5781 18.7812 79.3177 18.901 79.9844 19.1406C80.651 19.3698 81.2188 19.7396 81.6875 20.25C82.1667 20.75 82.5312 21.4062 82.7812 22.2188C83.0417 23.0312 83.1719 24.026 83.1719 25.2031V36H78.6562V25.2031C78.6562 24.4219 78.5521 23.8281 78.3438 23.4219C78.1458 23.0052 77.8542 22.7188 77.4688 22.5625C77.0938 22.3958 76.6458 22.3125 76.125 22.3125C75.5833 22.3125 75.1094 22.4219 74.7031 22.6406C74.2969 22.849 73.9583 23.1406 73.6875 23.5156C73.4167 23.8906 73.2135 24.3281 73.0781 24.8281C72.9427 25.3177 72.875 25.8542 72.875 26.4375ZM91.1562 22.3438V42.5H86.6562V19.0938H90.8281L91.1562 22.3438ZM101.859 27.3594V27.6875C101.859 28.9167 101.714 30.0573 101.422 31.1094C101.141 32.1615 100.724 33.0781 100.172 33.8594C99.6198 34.6302 98.9323 35.2344 98.1094 35.6719C97.2969 36.099 96.3594 36.3125 95.2969 36.3125C94.2656 36.3125 93.3698 36.1042 92.6094 35.6875C91.849 35.2708 91.2083 34.6875 90.6875 33.9375C90.1771 33.1771 89.7656 32.2969 89.4531 31.2969C89.1406 30.2969 88.901 29.224 88.7344 28.0781V27.2188C88.901 25.9896 89.1406 24.8646 89.4531 23.8438C89.7656 22.8125 90.1771 21.9219 90.6875 21.1719C91.2083 20.4115 91.8438 19.8229 92.5938 19.4062C93.3542 18.9896 94.2448 18.7812 95.2656 18.7812C96.3385 18.7812 97.2812 18.9844 98.0938 19.3906C98.9167 19.7969 99.6042 20.3802 100.156 21.1406C100.719 21.901 101.141 22.8073 101.422 23.8594C101.714 24.9115 101.859 26.0781 101.859 27.3594ZM97.3438 27.6875V27.3594C97.3438 26.6406 97.2812 25.9792 97.1562 25.375C97.0417 24.7604 96.8542 24.224 96.5938 23.7656C96.3438 23.3073 96.0104 22.9531 95.5938 22.7031C95.1875 22.4427 94.6927 22.3125 94.1094 22.3125C93.4948 22.3125 92.9688 22.4115 92.5312 22.6094C92.1042 22.8073 91.7552 23.0938 91.4844 23.4688C91.2135 23.8438 91.0104 24.2917 90.875 24.8125C90.7396 25.3333 90.6562 25.9219 90.625 26.5781V28.75C90.6771 29.5208 90.8229 30.2135 91.0625 30.8281C91.3021 31.4323 91.6719 31.9115 92.1719 32.2656C92.6719 32.6198 93.3281 32.7969 94.1406 32.7969C94.7344 32.7969 95.2344 32.6667 95.6406 32.4062C96.0469 32.1354 96.375 31.7656 96.625 31.2969C96.8854 30.8281 97.0677 30.2865 97.1719 29.6719C97.2865 29.0573 97.3438 28.3958 97.3438 27.6875ZM129.719 36.3125C128.406 36.3125 127.229 36.1042 126.188 35.6875C125.146 35.2604 124.26 34.6719 123.531 33.9219C122.812 33.1719 122.26 32.3021 121.875 31.3125C121.49 30.3125 121.297 29.25 121.297 28.125V27.5C121.297 26.2188 121.479 25.0469 121.844 23.9844C122.208 22.9219 122.729 22 123.406 21.2188C124.094 20.4375 124.927 19.8385 125.906 19.4219C126.885 18.9948 127.99 18.7812 129.219 18.7812C130.417 18.7812 131.479 18.9792 132.406 19.375C133.333 19.7708 134.109 20.3333 134.734 21.0625C135.37 21.7917 135.849 22.6667 136.172 23.6875C136.495 24.6979 136.656 25.8229 136.656 27.0625V28.9375H123.219V25.9375H132.234V25.5938C132.234 24.9688 132.12 24.4115 131.891 23.9219C131.672 23.4219 131.339 23.026 130.891 22.7344C130.443 22.4427 129.87 22.2969 129.172 22.2969C128.578 22.2969 128.068 22.4271 127.641 22.6875C127.214 22.9479 126.865 23.3125 126.594 23.7812C126.333 24.25 126.135 24.8021 126 25.4375C125.875 26.0625 125.812 26.75 125.812 27.5V28.125C125.812 28.8021 125.906 29.4271 126.094 30C126.292 30.5729 126.568 31.0677 126.922 31.4844C127.286 31.901 127.724 32.224 128.234 32.4531C128.755 32.6823 129.344 32.7969 130 32.7969C130.812 32.7969 131.568 32.6406 132.266 32.3281C132.974 32.0052 133.583 31.5208 134.094 30.875L136.281 33.25C135.927 33.7604 135.443 34.25 134.828 34.7188C134.224 35.1875 133.495 35.5729 132.641 35.875C131.786 36.1667 130.812 36.3125 129.719 36.3125Z" fill="black"/>
<path d="M112.438 36.3125C111.125 36.3125 109.948 36.1042 108.906 35.6875C107.865 35.2604 106.979 34.6719 106.25 33.9219C105.531 33.1719 104.979 32.3021 104.594 31.3125C104.208 30.3125 104.016 29.25 104.016 28.125V27.5C104.016 26.2188 104.198 25.0469 104.562 23.9844C104.927 22.9219 105.448 22 106.125 21.2188C106.812 20.4375 107.646 19.8385 108.625 19.4219C109.604 18.9948 110.708 18.7812 111.938 18.7812C113.135 18.7812 114.198 18.9792 115.125 19.375C116.052 19.7708 116.828 20.3333 117.453 21.0625C118.089 21.7917 118.568 22.6667 118.891 23.6875C119.214 24.6979 119.375 25.8229 119.375 27.0625V28.9375H105.938V25.9375H114.953V25.5938C114.953 24.9688 114.839 24.4115 114.609 23.9219C114.391 23.4219 114.057 23.026 113.609 22.7344C113.161 22.4427 112.589 22.2969 111.891 22.2969C111.297 22.2969 110.786 22.4271 110.359 22.6875C109.932 22.9479 109.583 23.3125 109.312 23.7812C109.052 24.25 108.854 24.8021 108.719 25.4375C108.594 26.0625 108.531 26.75 108.531 27.5V28.125C108.531 28.8021 108.625 29.4271 108.812 30C109.01 30.5729 109.286 31.0677 109.641 31.4844C110.005 31.901 110.443 32.224 110.953 32.4531C111.474 32.6823 112.062 32.7969 112.719 32.7969C113.531 32.7969 114.286 32.6406 114.984 32.3281C115.693 32.0052 116.302 31.5208 116.812 30.875L119 33.25C118.646 33.7604 118.161 34.25 117.547 34.7188C116.943 35.1875 116.214 35.5729 115.359 35.875C114.505 36.1667 113.531 36.3125 112.438 36.3125Z" fill="#CC0902"/>
<path d="M159.5 3H2.5V48H159.5V3Z" stroke="black" stroke-width="5" stroke-dasharray="8 8"/>
<path d="M139.5 16.7365C153 8.85786 161.898 9.32131 171.643 16.7365C176.44 20.387 188.643 20.9151 201.5 13.5" stroke="black" stroke-width="3"/>
<path d="M139.5 30.7365C153 22.8579 161.898 23.3213 171.643 30.7365C176.44 34.387 188.643 34.9151 201.5 27.5" stroke="black" stroke-width="3"/>
<path d="M139.5 44.7365C153 36.8579 161.898 37.3213 171.643 44.7365C176.44 48.387 188.643 48.9151 201.5 41.5" stroke="black" stroke-width="3"/>
</svg>
