<svg width="16" height="16" viewBox="0 0 16 16" fill="none" xmlns="http://www.w3.org/2000/svg">
<g clip-path="url(#clip0_350_206)">
<path d="M2.866 14.85C2.788 15.294 3.226 15.641 3.612 15.443L8.002 13.187L12.391 15.443C12.777 15.641 13.215 15.294 13.137 14.851L12.307 10.121L15.829 6.76498C16.159 6.45098 15.989 5.87698 15.547 5.81498L10.649 5.11898L8.465 0.791984C8.42339 0.704273 8.35775 0.630167 8.27571 0.578276C8.19366 0.526386 8.09857 0.49884 8.0015 0.49884C7.90442 0.49884 7.80933 0.526386 7.72729 0.578276C7.64524 0.630167 7.5796 0.704273 7.538 0.791984L5.354 5.11998L0.455996 5.81598C0.0149962 5.87798 -0.156004 6.45198 0.172996 6.76598L3.696 10.122L2.866 14.852V14.85ZM7.771 12.083L4.085 13.977L4.779 10.02C4.79525 9.9289 4.78889 9.83521 4.76047 9.74716C4.73205 9.6591 4.68244 9.57938 4.616 9.51498L1.71 6.74498L5.762 6.16898C5.8459 6.15631 5.92548 6.12349 5.99393 6.07334C6.06237 6.02318 6.11764 5.95718 6.155 5.88098L8 2.22298L9.847 5.88098C9.88435 5.95718 9.93962 6.02318 10.0081 6.07334C10.0765 6.12349 10.1561 6.15631 10.24 6.16898L14.292 6.74398L11.386 9.51398C11.3194 9.57848 11.2697 9.65837 11.2413 9.74662C11.2128 9.83486 11.2066 9.92874 11.223 10.02L11.917 13.977L8.231 12.083C8.15972 12.0462 8.08069 12.0271 8.0005 12.0271C7.9203 12.0271 7.84227 12.0462 7.771 12.083Z" fill="black"/>
</g>
<defs>
<clipPath id="clip0_350_206">
<rect width="16" height="16" fill="white"/>
</clipPath>
</defs>
</svg>
